<?xml version="1.0" standalone="no"?>
<!DOCTYPE svg PUBLIC "-//W3C//DTD SVG 20010904//EN"
 "http://www.w3.org/TR/2001/REC-SVG-20010904/DTD/svg10.dtd">
<svg version="1.0" xmlns="http://www.w3.org/2000/svg"
 width="260.000000pt" height="260.000000pt" viewBox="0 0 260.000000 260.000000"
 preserveAspectRatio="xMidYMid meet">
<metadata>
Created by potrace 1.14, written by Peter Selinger 2001-2017
</metadata>
<g transform="translate(0.000000,260.000000) scale(0.100000,-0.100000)"
fill="#000000" stroke="none">
<path d="M1286 2408 c-9 -12 -16 -17 -16 -11 0 6 -7 14 -16 17 -14 5 -15 4 -5
-8 9 -11 9 -16 0 -22 -7 -4 -9 -3 -6 2 3 6 -3 15 -14 22 -10 7 -19 9 -18 5 1
-5 1 -17 0 -27 -1 -20 -1 -20 -17 0 -8 10 -13 14 -10 7 4 -6 2 -14 -4 -18 -5
-3 -10 -2 -10 2 0 5 -11 9 -24 9 -14 0 -22 -5 -19 -12 6 -15 -24 -26 -33 -12
-4 6 -3 8 3 5 5 -3 10 0 10 8 0 11 -4 12 -14 3 -7 -6 -11 -13 -8 -16 11 -12
-30 -30 -48 -21 -13 7 -19 6 -23 -6 -3 -8 -10 -15 -16 -15 -5 0 -6 5 -2 12 5
7 3 8 -6 3 -10 -6 -9 -11 5 -22 22 -15 12 -17 -15 -3 -12 6 -21 6 -25 1 -3 -6
-14 -8 -25 -6 -12 2 -18 0 -15 -5 3 -5 14 -7 25 -5 11 2 22 0 25 -4 2 -5 -5
-8 -18 -7 -13 1 -21 -4 -19 -12 1 -8 -2 -11 -8 -7 -6 3 -8 11 -5 16 4 5 1 9
-4 9 -6 0 -11 -6 -11 -14 0 -8 -9 -12 -25 -11 -14 2 -25 -1 -25 -7 0 -6 -7 -8
-15 -4 -8 3 -14 2 -14 -2 1 -4 1 -16 0 -27 -1 -17 -3 -17 -11 -5 -8 13 -11 13
-22 1 -7 -8 -8 -11 -2 -8 6 3 11 0 11 -8 0 -11 -5 -12 -21 -3 -19 10 -19 9 -8
-5 11 -13 10 -15 -6 -10 -22 5 -86 -61 -76 -80 3 -7 -1 -4 -9 6 -13 16 -15 16
-21 2 -3 -9 -2 -13 4 -10 5 3 8 -3 7 -14 -1 -15 -4 -17 -14 -9 -9 7 -17 5 -30
-7 -16 -17 -16 -17 6 -10 l23 7 -21 -21 c-23 -23 -36 -27 -26 -8 4 6 -3 1 -14
-13 -11 -14 -18 -31 -16 -39 4 -9 0 -11 -11 -7 -14 5 -15 4 -4 -9 11 -13 10
-14 -4 -9 -14 5 -16 2 -12 -19 3 -19 1 -24 -10 -20 -8 3 -11 10 -7 17 3 6 2 7
-3 3 -14 -13 -11 -31 6 -44 13 -10 12 -11 -5 -10 -14 1 -20 -4 -19 -16 2 -15
-1 -16 -14 -5 -14 12 -14 10 -2 -12 12 -23 12 -24 -4 -11 -9 8 -16 10 -15 5 3
-12 -23 -67 -36 -76 -16 -12 4 -9 28 3 l22 12 -20 -20 c-11 -11 -23 -19 -28
-16 -12 7 -8 -12 5 -26 11 -11 9 -11 -10 -1 -13 6 -26 9 -30 6 -3 -3 0 -6 7
-6 7 0 9 -5 5 -12 -4 -6 -3 -8 3 -5 5 3 10 0 10 -8 0 -9 -6 -14 -13 -13 -7 2
-12 0 -11 -3 1 -3 -5 -14 -13 -24 -9 -11 -10 -16 -2 -11 6 4 12 3 12 -2 0 -6
-7 -13 -16 -16 -9 -4 -14 -9 -11 -13 4 -3 2 -12 -4 -20 -6 -7 -8 -13 -4 -13 4
0 1 -8 -6 -17 -13 -16 -12 -17 3 -5 10 8 16 19 15 24 -1 6 5 13 13 15 13 4 13
3 0 -6 -8 -6 -11 -11 -6 -11 5 0 3 -7 -4 -15 -6 -8 -9 -19 -5 -24 3 -6 0 -8
-8 -5 -8 3 -18 0 -23 -7 -4 -8 -3 -10 4 -5 8 5 10 -2 5 -25 -4 -21 -1 -34 8
-41 10 -6 6 -7 -11 -2 -23 6 -24 6 -10 -11 9 -11 10 -16 3 -11 -7 4 -13 2 -13
-3 0 -6 10 -11 23 -12 21 0 21 -1 2 -8 -11 -5 -27 -6 -35 -4 -12 4 -13 3 -1
-5 7 -5 11 -14 7 -20 -3 -6 -1 -14 6 -18 8 -5 6 -10 -8 -15 -17 -7 -17 -8 4
-8 12 -1 22 -5 22 -10 0 -5 -6 -8 -12 -7 -7 0 -14 -3 -15 -9 -2 -5 1 -10 6
-10 22 0 22 -16 0 -36 -13 -11 -18 -18 -11 -14 7 4 12 0 12 -10 0 -9 -4 -14
-8 -11 -5 3 -9 -2 -9 -10 0 -8 6 -13 14 -10 10 4 11 1 3 -14 -8 -15 -7 -19 2
-16 7 1 10 1 6 -1 -5 -3 -8 -11 -8 -19 0 -8 -5 -14 -11 -14 -5 0 0 -10 13 -22
13 -13 22 -22 19 -21 -2 2 -11 -3 -19 -10 -13 -10 -14 -9 -7 2 5 10 4 12 -4 7
-8 -5 -8 -12 3 -27 8 -12 12 -34 9 -51 -3 -23 -1 -28 9 -22 10 6 10 4 -1 -10
-12 -14 -12 -19 -1 -29 10 -9 11 -9 6 0 -5 9 -2 11 9 6 13 -4 14 -8 4 -14 -7
-4 -14 -15 -15 -23 -1 -9 2 -14 6 -11 5 3 12 0 16 -6 4 -8 3 -9 -4 -5 -7 4
-12 2 -12 -4 0 -6 -5 -8 -12 -4 -7 4 -8 3 -4 -4 4 -6 14 -8 24 -5 9 3 14 2 9
-2 -4 -5 0 -19 9 -33 9 -13 12 -22 6 -18 -5 3 -12 -1 -16 -9 -3 -8 0 -17 6
-21 7 -5 8 -2 3 6 -5 9 -4 11 4 6 9 -6 9 -11 1 -21 -8 -9 -8 -15 0 -20 6 -3 7
-11 4 -17 -4 -7 -2 -8 5 -4 9 6 9 12 -1 24 -10 14 -10 15 2 5 17 -16 25 -57 8
-47 -7 4 -8 3 -4 -5 4 -6 11 -9 16 -6 10 6 23 -23 24 -59 2 -27 29 -50 47 -40
3 2 6 -3 6 -11 0 -11 -4 -12 -14 -4 -28 24 -11 -1 24 -36 21 -21 32 -34 25
-31 -16 9 -15 -2 2 -19 7 -8 17 -11 20 -7 4 3 4 -1 1 -10 -6 -16 18 -48 37
-48 6 0 5 -6 -3 -16 -11 -14 -10 -15 7 -12 10 1 22 7 25 12 4 5 10 -1 14 -13
3 -11 11 -21 17 -21 6 0 5 -7 -3 -17 -13 -15 -12 -15 10 -4 13 7 21 9 18 4 -3
-4 1 -19 10 -33 8 -14 12 -17 9 -7 -3 9 -1 17 4 17 6 0 11 -10 11 -22 1 -17 2
-19 6 -5 2 9 8 17 13 17 5 0 7 -6 4 -14 -3 -8 0 -17 7 -22 8 -5 10 -3 4 6 -6
9 -4 11 4 6 7 -5 10 -15 7 -23 -3 -8 -1 -11 4 -8 12 8 42 -20 32 -29 -3 -4 1
-4 11 0 16 6 16 7 1 19 -15 10 -15 12 -1 12 18 0 30 -23 21 -40 -5 -8 -2 -7 7
0 18 18 34 16 19 -2 -14 -17 0 -21 17 -4 8 8 15 6 24 -9 11 -17 16 -19 28 -9
12 10 13 9 6 -2 -6 -11 -4 -13 8 -8 9 3 21 -1 29 -11 12 -15 11 -16 -4 -4 -12
10 -18 10 -24 1 -4 -7 -3 -9 4 -5 6 3 13 2 16 -3 3 -5 16 -7 28 -3 16 4 19 2
13 -9 -6 -11 -5 -11 5 -2 8 7 19 9 29 4 9 -5 24 -7 34 -6 9 2 15 -1 11 -6 -3
-5 -11 -6 -17 -3 -9 5 -9 3 0 -6 10 -11 15 -11 29 1 12 9 15 10 10 1 -4 -6 -3
-12 3 -12 5 0 13 5 16 10 5 8 12 7 22 -1 11 -10 16 -10 22 -1 5 8 11 5 21 -8
18 -25 31 -26 24 -2 -5 15 -4 15 9 -1 15 -18 15 -18 20 0 4 17 5 17 6 0 1 -14
7 -16 33 -12 17 3 36 9 42 12 6 4 4 -2 -4 -13 -14 -19 -14 -19 7 -1 15 13 22
15 25 6 2 -7 12 -13 21 -15 10 -1 14 2 11 8 -4 6 -1 8 7 6 8 -3 25 -1 39 4 35
14 70 17 64 6 -3 -5 -11 -7 -18 -5 -6 3 -20 -1 -31 -9 -10 -8 -14 -14 -9 -14
6 0 14 3 17 7 11 10 56 12 62 2 4 -5 11 -9 18 -9 6 0 2 6 -9 14 -16 12 -17 17
-6 28 11 11 13 11 10 -1 -2 -7 3 -16 11 -19 8 -3 11 0 7 7 -5 7 -1 9 8 5 9 -3
13 -11 10 -18 -3 -6 4 0 16 14 l21 25 -6 -24 c-5 -16 -4 -21 4 -17 6 4 11 14
11 22 0 8 5 14 10 14 6 0 9 -5 8 -11 -2 -6 4 -14 12 -16 12 -4 12 -3 1 5 -9 7
-10 11 -2 17 7 4 18 1 26 -5 16 -14 39 -4 29 12 -5 7 -2 9 8 5 9 -3 21 0 28 6
10 10 12 8 7 -6 -4 -11 -3 -16 3 -12 6 3 10 15 10 26 0 10 5 19 11 19 5 0 7
-5 4 -10 -9 -15 4 -12 20 4 8 7 11 17 7 22 -4 5 3 0 16 -10 21 -18 28 -13 23
17 -1 5 3 6 9 2 6 -3 8 -10 5 -15 -3 -5 4 -7 16 -5 13 3 26 10 31 17 4 7 8 9
8 4 0 -5 6 -3 13 3 8 6 18 7 22 3 5 -4 5 -1 1 6 -6 9 -11 10 -20 3 -9 -8 -13
-7 -13 3 0 14 26 14 50 0 7 -5 6 0 -3 11 -12 15 -12 17 -1 10 11 -6 13 -4 7
10 -5 15 -4 16 9 5 8 -7 12 -17 8 -24 -3 -6 3 -3 14 7 11 9 23 14 27 10 4 -5
6 -1 4 7 -2 10 6 16 25 18 15 2 25 8 22 13 -4 5 -1 9 5 9 6 0 8 5 4 13 -5 8
-2 7 9 -2 15 -12 17 -12 12 2 -4 8 -1 18 6 23 8 5 10 3 4 -6 -6 -9 -4 -11 4
-6 7 5 10 15 6 24 -3 9 -3 13 1 9 4 -4 18 2 30 14 16 15 24 17 29 8 6 -8 4
-10 -5 -4 -9 5 -11 4 -6 -4 4 -6 12 -9 17 -5 5 3 7 10 4 15 -4 5 -1 9 5 9 6 0
10 8 9 17 -4 31 12 55 26 43 11 -9 12 -7 8 10 -3 12 2 29 12 40 23 25 29 74 9
66 -8 -3 -14 -1 -14 4 0 9 15 14 33 11 5 -1 5 4 1 11 -5 7 -9 20 -9 28 0 8 -7
15 -15 15 -14 0 -16 6 -11 35 0 6 6 10 13 10 9 0 9 -3 0 -12 -17 -17 -15 -24
7 -24 11 0 17 5 13 11 -10 15 -9 29 3 38 5 5 -3 6 -19 2 l-30 -6 25 21 c20 18
21 21 4 15 -11 -3 -16 -3 -12 1 4 4 2 13 -4 20 -8 9 -5 18 10 33 12 12 18 21
13 21 -4 0 -13 9 -20 21 -8 12 -9 18 -3 14 11 -6 15 6 11 39 -1 12 2 16 10 11
8 -5 11 -3 8 6 -3 8 -14 13 -24 11 -15 -2 -16 -1 -5 7 16 10 25 45 10 35 -5
-3 -6 -10 -3 -16 4 -7 2 -8 -5 -4 -8 6 -9 12 -2 20 6 7 9 22 6 34 -4 25 4 28
25 10 7 -7 5 -1 -6 13 -10 15 -23 24 -28 21 -5 -3 -5 1 0 9 11 17 15 81 4 74
-3 -2 -7 2 -7 10 0 12 4 12 21 -2 12 -10 18 -14 14 -9 -4 5 -2 16 5 25 10 14
10 14 -5 3 -14 -11 -17 -10 -20 5 -2 10 3 23 12 30 12 10 12 12 1 13 -11 0
-11 3 0 17 8 10 9 14 2 10 -12 -7 -26 7 -29 30 -1 7 2 15 6 18 5 3 7 -4 5 -15
-4 -21 9 -28 20 -10 3 6 1 10 -4 10 -6 0 -10 3 -10 8 3 18 -2 33 -9 28 -5 -3
-9 2 -9 10 0 8 6 13 13 10 8 -3 16 0 20 6 4 7 3 8 -4 4 -15 -9 -16 6 -2 20 7
7 6 11 -4 11 -8 0 -13 -4 -10 -9 3 -4 1 -8 -4 -8 -6 0 -9 11 -8 24 0 16 5 21
11 15 5 -5 14 -9 20 -9 5 0 3 5 -5 10 -13 9 -13 11 0 20 9 6 11 10 3 10 -7 0
-18 10 -24 23 -9 18 -9 20 2 10 7 -7 18 -13 24 -13 5 0 3 5 -5 10 -12 8 -13
12 -2 19 11 6 10 10 -3 15 -24 9 -32 7 -15 -4 8 -5 10 -10 4 -10 -21 0 -24 14
-7 39 l16 26 -23 -20 -23 -20 11 21 c13 25 5 39 -15 23 -13 -12 -19 2 -6 15 4
3 8 14 9 22 1 9 0 13 -3 10 -4 -3 -12 -1 -20 5 -7 6 -13 8 -13 4 0 -3 -12 3
-26 14 -14 11 -31 18 -39 15 -7 -3 -19 4 -25 16 -10 18 -9 21 1 15 9 -6 11 -3
6 8 -4 10 1 21 11 27 14 9 12 10 -8 4 -21 -6 -23 -5 -13 8 9 10 9 18 2 25 -8
8 -7 18 2 34 35 67 35 69 12 70 -15 0 -15 2 2 9 14 6 16 9 5 10 -8 2 -18 2
-22 1 -5 0 -8 4 -8 10 0 6 7 9 14 6 10 -4 13 -1 9 9 -3 7 0 14 6 14 6 0 11 -7
11 -17 0 -9 3 -14 6 -10 11 11 -7 49 -21 43 -9 -3 -12 0 -8 10 6 17 15 18 32
2 11 -11 12 -10 5 2 -5 8 -9 25 -10 38 -1 17 3 22 15 17 13 -4 13 -2 -1 9 -21
15 -25 71 -5 60 9 -5 9 -4 0 6 -10 11 -10 17 0 29 9 12 9 13 0 7 -8 -4 -13 -2
-13 4 0 6 -5 8 -12 4 -7 -4 -8 -3 -4 4 4 7 15 12 24 12 14 0 15 2 2 9 -8 6
-18 7 -24 4 -5 -4 -6 -1 -2 6 5 7 14 10 20 8 7 -3 13 1 13 7 0 8 -10 12 -24
10 -12 -1 -23 2 -23 8 0 6 6 8 13 5 8 -3 20 -1 28 5 11 8 11 9 -3 5 -9 -3 -22
1 -28 8 -7 8 -17 12 -24 8 -6 -3 -8 -3 -4 2 4 4 2 15 -5 23 -8 11 -9 14 0 9 8
-5 11 -1 10 12 -1 14 -5 17 -13 11 -6 -6 -14 -6 -18 -2 -4 4 -13 7 -19 7 -7 0
-12 10 -12 22 0 12 -4 25 -8 30 -5 4 -8 4 -7 -2 5 -22 -1 -45 -11 -45 -5 0 -8
4 -4 9 5 9 -32 36 -45 33 -3 0 -4 6 -2 15 2 8 -1 12 -7 9 -5 -4 -14 2 -20 11
-6 10 -11 12 -11 6 0 -7 -10 -13 -22 -13 -19 0 -20 -2 -8 -10 8 -5 10 -10 4
-10 -19 0 -24 13 -11 28 10 13 9 14 -1 8 -8 -5 -20 -2 -30 7 -23 19 -56 19
-40 0 6 -8 17 -12 24 -9 7 3 16 1 19 -4 3 -4 -5 -7 -17 -5 -32 4 -59 16 -54
24 2 3 -11 7 -30 8 -19 1 -32 -2 -30 -6 3 -4 -1 -8 -10 -8 -10 0 -12 7 -8 21
6 19 4 18 -15 -4 -13 -14 -20 -20 -17 -13 4 6 2 14 -4 18 -5 3 -10 -2 -10 -11
0 -16 -1 -16 -15 2 -12 16 -14 16 -15 3 0 -13 -8 -16 -32 -14 -18 2 -39 -2
-47 -8 -11 -9 -13 -9 -8 0 9 15 -9 26 -43 28 -14 1 -31 4 -37 8 -6 4 -15 3
-18 -3 -5 -8 -11 -8 -20 0 -14 12 -31 -3 -21 -18 3 -5 -2 -9 -10 -9 -8 0 -13
6 -10 13 3 8 1 16 -5 19 -5 4 -9 3 -8 -2 1 -4 1 -15 0 -23 -1 -13 -3 -13 -10
0 -6 8 -7 18 -5 22 12 18 -6 6 -20 -14z m125 -11 c-13 -13 -26 -3 -16 12 3 6
11 8 17 5 6 -4 6 -10 -1 -17z m302 -14 c-3 -7 -6 -13 -8 -13 -2 0 -5 6 -8 13
-3 8 1 14 8 14 7 0 11 -6 8 -14z m-558 -12 c3 -5 2 -12 -3 -15 -5 -3 -9 1 -9
9 0 17 3 19 12 6z m731 -27 c1 -9 0 -13 -4 -10 -3 4 -7 14 -8 22 -1 9 0 13 4
10 3 -4 7 -14 8 -22z m-1036 -109 c-7 -9 -15 -13 -19 -10 -3 3 1 10 9 15 21
14 24 12 10 -5z m-85 -65 c4 -6 3 -10 -2 -9 -13 3 -43 -13 -38 -20 2 -4 -3 -8
-12 -8 -12 0 -9 7 11 24 31 26 32 27 41 13z m1321 -65 c-1 -8 -5 -17 -8 -21
-5 -4 -4 16 1 34 3 9 9 -1 7 -13z m1 -90 c0 -8 -4 -12 -9 -9 -4 3 -8 9 -8 15
0 5 4 9 8 9 5 0 9 -7 9 -15z m-1485 -2 c-6 -2 -9 -10 -6 -15 4 -7 2 -8 -5 -4
-13 9 -5 26 12 25 9 0 8 -2 -1 -6z m1483 -31 c-3 -3 -11 0 -18 7 -9 10 -8 11
6 5 10 -3 15 -9 12 -12z m-8 -128 c-3 -3 -12 -4 -19 -1 -8 3 -5 6 6 6 11 1 17
-2 13 -5z m-1606 -47 c-10 -9 -11 -8 -5 6 3 10 9 15 12 12 3 -3 0 -11 -7 -18z
m1665 -186 c1 -6 0 -7 -3 -1 -2 5 -9 8 -14 4 -5 -3 -12 1 -15 10 -3 8 -13 12
-22 9 -15 -4 -15 -3 -2 6 16 11 52 -6 56 -28z m33 -4 c8 -10 7 -14 -4 -14 -8
0 -15 6 -15 14 0 7 2 13 4 13 2 0 9 -6 15 -13z m-1810 -221 c9 -11 9 -16 -1
-22 -7 -4 -10 -4 -6 1 4 4 3 14 -3 22 -6 7 -9 13 -6 13 2 0 10 -6 16 -14z
m1868 -141 c0 -8 -4 -12 -9 -9 -4 3 -8 9 -8 15 0 5 4 9 8 9 5 0 9 -7 9 -15z
m13 -569 c0 -2 -7 -7 -16 -10 -8 -3 -12 -2 -9 4 6 10 25 14 25 6z m-1773 -22
c-3 -3 -12 -4 -19 -1 -8 3 -5 6 6 6 11 1 17 -2 13 -5z m1767 -59 c-4 -8 -11
-12 -16 -9 -6 4 -5 10 3 15 19 12 19 11 13 -6z m-1649 -97 c5 4 5 1 1 -6 -6
-10 -11 -10 -22 -1 -8 6 -14 14 -14 16 0 3 6 0 13 -6 8 -6 18 -7 22 -3z m1390
-167 c3 -5 2 -12 -3 -15 -5 -3 -9 1 -9 9 0 17 3 19 12 6z m-115 -65 c0 -3 -4
-8 -10 -11 -5 -3 -10 -1 -10 4 0 6 5 11 10 11 6 0 10 -2 10 -4z m-205 -56 c-3
-5 -1 -10 6 -10 7 0 10 -3 6 -6 -9 -9 -28 6 -22 17 4 5 8 9 11 9 3 0 2 -4 -1
-10z m-394 -27 c13 -16 12 -17 -3 -4 -10 7 -18 15 -18 17 0 8 8 3 21 -13z m99
-7 c0 -3 -4 -8 -10 -11 -5 -3 -10 -1 -10 4 0 6 5 11 10 11 6 0 10 -2 10 -4z"/>
<path d="M1560 2421 c0 -6 -9 -8 -20 -6 -11 2 -18 0 -15 -5 7 -12 38 -6 43 8
2 7 1 12 -2 12 -3 0 -6 -4 -6 -9z"/>
<path d="M1060 2361 c0 -7 -5 -9 -12 -5 -7 5 -8 3 -3 -5 5 -9 10 -10 18 -2 6
6 8 14 4 18 -4 3 -7 1 -7 -6z"/>
<path d="M1914 2348 c-4 -7 -4 -10 1 -6 4 4 16 3 26 -3 11 -5 19 -7 19 -5 0 3
-9 10 -19 16 -15 7 -22 7 -27 -2z"/>
<path d="M2015 2300 c3 -5 8 -10 11 -10 2 0 4 5 4 10 0 6 -5 10 -11 10 -5 0
-7 -4 -4 -10z"/>
<path d="M2057 2263 c-3 -5 4 -15 16 -23 21 -12 21 -12 7 6 -8 10 -15 20 -16
22 -1 2 -4 -1 -7 -5z"/>
<path d="M2060 1780 c0 -5 5 -10 11 -10 5 0 7 5 4 10 -3 6 -8 10 -11 10 -2 0
-4 -4 -4 -10z"/>
<path d="M310 1296 c7 -7 13 -7 20 0 6 6 3 10 -10 10 -13 0 -16 -4 -10 -10z"/>
<path d="M310 1136 c0 -2 7 -7 16 -10 8 -3 12 -2 9 4 -6 10 -25 14 -25 6z"/>
<path d="M2230 1136 c0 -2 8 -10 18 -17 15 -13 16 -12 3 4 -13 16 -21 21 -21
13z"/>
<path d="M2236 901 c-4 -5 -2 -12 3 -15 5 -4 12 -2 15 3 4 5 2 12 -3 15 -5 4
-12 2 -15 -3z"/>
<path d="M2234 843 c4 -7 2 -13 -4 -13 -6 0 -8 -4 -5 -10 3 -5 10 -10 15 -10
10 0 7 27 -5 37 -4 4 -5 2 -1 -4z"/>
<path d="M413 715 c0 -8 4 -12 9 -9 5 3 6 10 3 15 -9 13 -12 11 -12 -6z"/>
<path d="M482 587 c10 -8 14 -18 10 -22 -4 -5 -1 -5 6 -1 17 10 15 14 -10 26
-21 10 -21 10 -6 -3z"/>
<path d="M2225 560 c-3 -6 1 -7 9 -4 18 7 21 14 7 14 -6 0 -13 -4 -16 -10z"/>
<path d="M2185 501 c-6 -11 13 -26 22 -17 4 3 1 6 -6 6 -7 0 -9 5 -6 10 3 6 4
10 1 10 -3 0 -7 -4 -11 -9z"/>
<path d="M606 441 c-3 -5 1 -11 9 -14 9 -4 12 -1 8 9 -6 16 -10 17 -17 5z"/>
<path d="M2122 427 c-8 -10 -6 -13 11 -14 12 0 16 1 9 4 -6 3 -10 9 -6 14 8
14 -2 11 -14 -4z"/>
<path d="M1775 240 c-3 -5 -1 -10 4 -10 6 0 11 5 11 10 0 6 -2 10 -4 10 -3 0
-8 -4 -11 -10z"/>
<path d="M1118 188 c13 -16 56 -22 46 -6 -3 5 -10 6 -15 2 -5 -3 -18 0 -27 8
-15 12 -16 11 -4 -4z"/>
</g>
</svg>
