<?xml version="1.0" standalone="no"?>
<!DOCTYPE svg PUBLIC "-//W3C//DTD SVG 20010904//EN"
 "http://www.w3.org/TR/2001/REC-SVG-20010904/DTD/svg10.dtd">
<svg version="1.0" xmlns="http://www.w3.org/2000/svg"
 width="515.000000pt" height="515.000000pt" viewBox="0 0 515.000000 515.000000"
 preserveAspectRatio="xMidYMid meet">
<metadata>
Created by potrace 1.14, written by Peter Selinger 2001-2017
</metadata>
<g transform="translate(0.000000,515.000000) scale(0.100000,-0.100000)"
fill="#000000" stroke="none">
<path d="M2597 4974 c-1 -1 -49 -4 -107 -8 -58 -3 -116 -8 -130 -10 -14 -3
-41 -7 -60 -10 -56 -9 -94 -16 -112 -22 -10 -3 -29 -7 -43 -10 -57 -10 -217
-69 -310 -115 -85 -41 -218 -119 -235 -139 -3 -3 -23 -18 -45 -34 -112 -83
-298 -299 -407 -473 -121 -194 -258 -535 -303 -751 -2 -9 -8 -37 -14 -62 -16
-74 -36 -202 -56 -360 -22 -180 -22 -675 0 -788 2 -10 6 -43 9 -73 35 -310
129 -632 254 -874 259 -501 665 -833 1166 -954 165 -40 275 -54 441 -54 171
-1 248 5 390 33 108 22 115 24 215 55 82 26 105 35 235 93 206 92 480 279 685
469 l64 60 1 856 0 855 -797 -2 -798 -1 0 -270 0 -271 553 1 552 0 1 -80 c0
-44 -1 -85 -3 -91 -3 -7 -166 -10 -541 -10 -295 1 -544 0 -553 -2 -15 -3 -17
-31 -16 -263 l0 -259 554 0 553 0 1 -22 c6 -141 7 -140 -110 -236 -221 -182
-525 -321 -786 -360 -99 -14 -384 -7 -475 12 -548 118 -910 519 -1046 1161 -2
11 -7 36 -10 55 -3 19 -7 40 -9 47 -2 6 -7 38 -10 70 -4 32 -8 69 -11 83 -23
133 -22 613 1 790 2 19 7 55 10 80 9 71 11 82 44 225 50 222 145 441 274 633
67 100 222 256 316 317 148 97 338 161 536 182 504 53 932 -157 1120 -549 31
-65 83 -213 115 -328 32 -116 29 -110 58 -98 15 5 112 39 217 74 104 36 190
66 192 68 5 5 -17 104 -49 216 -97 343 -210 546 -412 745 -207 202 -468 328
-786 379 -52 8 -317 25 -323 20z"/>
</g>
</svg>
